<?xml version="1.0" standalone="no"?>
<!DOCTYPE svg PUBLIC "-//W3C//DTD SVG 20010904//EN"
 "http://www.w3.org/TR/2001/REC-SVG-20010904/DTD/svg10.dtd">
<svg version="1.0" xmlns="http://www.w3.org/2000/svg"
 width="152.000000pt" height="152.000000pt" viewBox="0 0 152.000000 152.000000"
 preserveAspectRatio="xMidYMid meet">
<metadata>
Created by potrace 1.14, written by Peter Selinger 2001-2017
</metadata>
<g transform="translate(0.000000,152.000000) scale(0.100000,-0.100000)"
fill="#000000" stroke="none">
<path d="M788 1013 c-73 -224 -176 -541 -183 -561 -6 -22 -5 -23 47 -20 l53 3
107 320 c59 176 107 323 107 328 1 4 -23 7 -52 7 l-54 0 -25 -77z"/>
<path d="M430 1050 c0 -5 -6 -10 -12 -10 -7 -1 -101 -52 -208 -114 -154 -89
-197 -118 -205 -140 -14 -41 10 -75 90 -122 39 -23 132 -78 209 -122 76 -45
141 -82 145 -82 8 0 9 156 1 163 -17 14 -209 119 -227 123 -13 4 -23 10 -23
14 0 4 28 22 63 40 121 64 172 93 182 102 16 14 14 158 -2 158 -7 0 -13 -4
-13 -10z"/>
<path d="M1064 981 c1 -44 3 -81 6 -84 11 -10 100 -59 170 -94 41 -21 77 -39
80 -41 6 -4 -13 -16 -132 -78 -54 -28 -104 -57 -112 -63 -10 -8 -14 -32 -12
-81 0 -37 4 -71 7 -74 4 -4 40 13 80 37 41 24 94 55 119 69 176 99 233 135
242 151 5 11 7 33 4 51 -5 28 -20 40 -124 101 -64 39 -126 75 -137 81 -11 6
-55 32 -98 57 -43 26 -82 47 -86 47 -4 0 -7 -36 -7 -79z"/>
</g>
</svg>
